Coordinates
version=1
nRows=29
nColumns=22
inDegrees=yes

Units are S.I. units (second, meters, Newtons, ...)
If the header above contains a line with 'inDegrees', this indicates whether rotational values are in degrees (yes) or radians (no).

endheader
time	pelvis_tilt	pelvis_list	pelvis_rotation	pelvis_tx	pelvis_ty	pelvis_tz	hip_flexion_r	hip_adduction_r	hip_rotation_r	knee_angle_r	ankle_angle_r	subtalar_angle_r	hip_flexion_l	hip_adduction_l	hip_rotation_l	knee_angle_l	ankle_angle_l	subtalar_angle_l	lumbar_extension	lumbar_bending	lumbar_rotation
      2.40000000	      2.97494732	     -5.73491173	      0.47599993	     -0.20373493	      0.92735707	      0.09562072	      8.14999423	      9.52367724	     -3.50453004	    -17.92848241	      1.58183096	      1.28251928	      9.11974041	     -9.51715215	     -1.63759102	    -66.09902529	     -7.85917061	      2.60323242	     -8.74211672	      1.43150916	      1.46846035
      2.41000000	      3.06619425	     -5.56419499	      0.18334000	     -0.19447301	      0.92861532	      0.09667933	      7.08877572	      9.46073118	     -3.05361192	    -17.39480544	      1.94767939	      1.32509563	     10.50055166	     -9.37807024	     -1.86046940	    -66.44398992	     -6.92873020	      2.55295081	     -8.83174989	      1.20991284	      2.02026682
      2.42000000	      3.14281159	     -5.37560317	     -0.15584692	     -0.18526953	      0.92977476	      0.09776805	      6.05808180	      9.36892632	     -2.56235302	    -16.88191212	      2.30902300	      1.37454713	     11.80974507	     -9.24285328	     -2.17798057	    -66.48890845	     -5.87387921	      2.52135963	     -8.89918299	      0.96762906	      2.56007141
      2.43000000	      3.20973296	     -5.17599551	     -0.52380341	     -0.17612427	      0.93082321	      0.09885278	      5.05307956	      9.24988949	     -2.05005117	    -16.38823095	      2.66342697	      1.42208687	     13.04453972	     -9.11910691	     -2.57444262	    -66.23854713	     -4.73975685	      2.51824176	     -8.94942854	      0.71864863	      3.07304143
      2.44000000	      3.29601244	     -4.97009491	     -0.95409670	     -0.16704061	      0.93181234	      0.10000517	      4.02491067	      9.11573129	     -1.44244390	    -15.88252593	      2.99242323	      1.46701507	     14.15602360	     -9.01819993	     -3.07665438	    -65.68025431	     -3.63441122	      2.48117460	     -9.02340273	      0.45618178	      3.61086406
      2.45000000	      3.35393246	     -4.77981944	     -1.38723636	     -0.15801970	      0.93261463	      0.10110655	      3.06547699	      8.97318353	     -0.90899624	    -15.43363194	      3.32518796	      1.48223454	     15.21655137	     -8.94684603	     -3.61475986	    -64.84424630	     -2.50218966	      2.47510954	     -9.06354365	      0.22060074	      4.12409377
      2.46000000	      3.44505092	     -4.58548707	     -1.85476479	     -0.14902810	      0.93336375	      0.10221138	      2.05912453	      8.81204374	     -0.29405197	    -14.95611884	      3.62334305	      1.46046650	     16.13451503	     -8.89711186	     -4.25091915	    -63.70537413	     -1.52567738	      2.35543874	     -9.14228776	     -0.01558587	      4.60605886
      2.47000000	      3.52982559	     -4.41207067	     -2.32198665	     -0.14008660	      0.93396234	      0.10325685	      1.08765510	      8.65089174	      0.27290575	    -14.51762202	      3.90793113	      1.39553949	     16.96351716	     -8.87049216	     -4.91647625	    -62.28420392	     -0.64358509	      2.13168254	     -9.21770450	     -0.22206005	      5.08528067
      2.48000000	      3.58470948	     -4.25662702	     -2.82018259	     -0.13120280	      0.93437752	      0.10430782	      0.16979717	      8.49567385	      0.86588470	    -14.11029958	      4.19645310	      1.29543382	     17.72288309	     -8.87528712	     -5.64574269	    -60.58981059	      0.06386256	      1.85528943	     -9.26451263	     -0.40660301	      5.58509959
      2.49000000	      3.66255914	     -4.11438545	     -3.30553743	     -0.12231885	      0.93469470	      0.10529280	     -0.75827253	      8.33393329	      1.42113195	    -13.72260849	      4.45699659	      1.13592866	     18.34395281	     -8.89524298	     -6.42879206	    -58.60842104	      0.65766933	      1.46269677	     -9.34084864	     -0.57111984	      6.02815754
      2.50000000	      3.67167770	     -3.99700762	     -3.80736379	     -0.11347014	      0.93475561	      0.10624877	     -1.56578576	      8.18574598	      1.94028053	    -13.41615954	      4.73012847	      0.98501502	     18.93097488	     -8.94747083	     -7.26880334	    -56.37101410	      1.14799741	      1.17391751	     -9.34458922	     -0.70155378	      6.49930701
      2.51000000	      3.72832494	     -3.88992402	     -4.28700760	     -0.10456699	      0.93476709	      0.10713036	     -2.43399429	      8.03004116	      2.44865614	    -13.09015724	      4.99926921	      0.77775446	     19.34221734	     -8.99347059	     -8.15835968	    -53.85145217	      1.48270017	      0.81218419	     -9.40000705	     -0.81948355	      6.93770475
      2.52000000	      3.83998836	     -3.81040253	     -4.70039416	     -0.09557636	      0.93472932	      0.10786638	     -3.37967319	      7.88375688	      2.89269251	    -12.72924569	      5.26604228	      0.51741928	     19.57898159	     -9.02639937	     -9.05602811	    -51.06952201	      1.70875813	      0.40265878	     -9.51821675	     -0.89979531	      7.29184975
      2.53000000	      3.87835878	     -3.75405867	     -5.13320304	     -0.08655715	      0.93442374	      0.10858427	     -4.20170195	      7.75365491	      3.32076536	    -12.45914809	      5.58547509	      0.31440982	     19.78145587	     -9.09158569	    -10.07519489	    -48.07436394	      1.82825057	      0.17646124	     -9.55122032	     -0.94725615	      7.64619935
      2.54000000	      3.90235802	     -3.71750197	     -5.54396566	     -0.07747699	      0.93395662	      0.10921175	     -4.99423609	      7.63306135	      3.71230406	    -12.21909020	      5.92161913	      0.11794569	     19.88959321	     -9.14093643	    -11.15268215	    -44.87068822	      1.87272686	      0.04451997	     -9.56684770	     -0.96698742	      7.98834186
      2.55000000	      3.88673014	     -3.69887217	     -5.93962409	     -0.06835199	      0.93327766	      0.10975692	     -5.72052468	      7.52511298	      4.09299024	    -12.03132084	      6.30293680	     -0.05841761	     19.94961406	     -9.17845576	    -12.31483173	    -41.50960736	      1.84664711	      0.02804636	     -9.53841546	     -0.95759512	      8.28584168
      2.56000000	      3.86389478	     -3.69565722	     -6.30007207	     -0.05916833	      0.93244448	      0.11012617	     -6.42701709	      7.41947822	      4.43991654	    -11.87193726	      6.69314762	     -0.23779336	     19.93887497	     -9.16029306	    -13.48415386	    -38.01920433	      1.79822070	      0.12400305	     -9.50300700	     -0.91288122	      8.56553081
      2.57000000	      3.79495054	     -3.70318515	     -6.64072709	     -0.04996528	      0.93138813	      0.11036152	     -7.04827070	      7.32034987	      4.75697928	    -11.78464317	      7.12066847	     -0.39523682	     19.92248635	     -9.09254804	    -14.65981001	    -34.45903385	      1.74122205	      0.35331934	     -9.41912258	     -0.84155600	      8.81018533
      2.58000000	      3.68622808	     -3.72107957	     -6.94949766	     -0.04073765	      0.93011466	      0.11041574	     -7.59356684	      7.22583486	      5.02786103	    -11.76460514	      7.57897567	     -0.53195615	     19.91779397	     -8.96291709	    -15.78211961	    -30.88894733	      1.70542261	      0.72869154	     -9.29320761	     -0.73652460	      9.00532433
      2.59000000	      3.54227041	     -3.75268668	     -7.22500757	     -0.03149092	      0.92862831	      0.11029727	     -8.06734231	      7.14147363	      5.24560451	    -11.81305471	      8.07217948	     -0.64553205	     19.93879131	     -8.77507767	    -16.78676542	    -27.36848071	      1.70533584	      1.26162683	     -9.13026277	     -0.59756923	      9.15902843
      2.60000000	      3.36132240	     -3.80439168	     -7.47069898	     -0.02222904	      0.92692979	      0.10998985	     -8.46239347	      7.07327741	      5.40224209	    -11.94226759	      8.59781722	     -0.72988783	     20.00238789	     -8.54189389	    -17.61174730	    -23.95987965	      1.74326429	      1.93021644	     -8.93076977	     -0.41287846	      9.28524873
      2.61000000	      3.16954127	     -3.87655246	     -7.67939547	     -0.01292946	      0.92506059	      0.10954956	     -8.82370327	      7.02514363	      5.52678985	    -12.12345304	      9.11844146	     -0.79051416	     20.09086966	     -8.28455083	    -18.23761699	    -20.73017716	      1.84078226	      2.76102055	     -8.72073090	     -0.19463619	      9.33060553
      2.62000000	      2.96531417	     -3.97649460	     -7.87281565	     -0.00360191	      0.92303580	      0.10899485	     -9.13756797	      7.00126632	      5.60398083	    -12.37986800	      9.65980463	     -0.81649668	     20.21410444	     -8.03706520	    -18.66009416	    -17.75459519	      1.95683106	      3.63881252	     -8.50059829	      0.06623385	      9.37059983
      2.63000000	      2.77019556	     -4.09990148	     -8.05596691	      0.00576536	      0.92090900	      0.10840524	     -9.43741684	      6.99881659	      5.66283056	    -12.69510328	     10.20171296	     -0.81277135	     20.35855017	     -7.82606012	    -18.90731027	    -15.11208535	      2.08581988	      4.53059239	     -8.29317370	      0.34574666	      9.39996634
      2.64000000	      2.59385136	     -4.24295144	     -8.24184679	      0.01515909	      0.91872966	      0.10780968	     -9.71543282	      7.01057236	      5.69260049	    -13.10057111	     10.73956933	     -0.78217463	     20.52123463	     -7.67431213	    -19.04149750	    -12.87687491	      2.20433645	      5.33205917	     -8.11400554	      0.63253709	      9.44386013
      2.65000000	      2.45427445	     -4.41681987	     -8.42973013	      0.02458180	      0.91655938	      0.10725857	    -10.01807636	      7.05149676	      5.76607523	    -13.54946502	     11.24260155	     -0.72523722	     20.70352237	     -7.61407877	    -19.06982285	    -11.14420236	      2.33551753	      6.07014844	     -7.98505429	      0.93252314	      9.49109242
      2.66000000	      2.35043209	     -4.60131619	     -8.62866883	      0.03401139	      0.91443255	      0.10676257	    -10.32332112	      7.09883031	      5.86938154	    -14.07412293	     11.74162025	     -0.64985921	     20.92609494	     -7.64289126	    -19.06161440	     -9.98796209	      2.45938913	      6.58566815	     -7.90907150	      1.21768054	      9.54955279
      2.67000000	      2.29598873	     -4.81181670	     -8.82863179	      0.04352708	      0.91241218	      0.10638981	    -10.66633085	      7.17169011	      5.98620255	    -14.64813593	     12.16144415	     -0.55519195	     21.17349274	     -7.78550269	    -19.02701290	     -9.44180247	      2.60904805	      6.98245909	     -7.88533973	      1.48507027	      9.66294977
      2.68000000	      2.27092179	     -5.02440219	     -9.05106641	      0.05307069	      0.91051497	      0.10609239	    -10.99242712	      7.23991260	      6.12321179	    -15.31781200	     12.44960925	     -0.43594839	     21.45985190	     -8.01727252	    -18.97619130	     -9.48308538	      2.71397669	      7.23981017	     -7.90619738	      1.72875348	      9.80497554
